PathFileType	4	(X/Y/Z)	 s09c0401.trc
DataRate	CameraRate	NumFrames	NumMarkers	Units	OrigDataRate	OrigDataStartFrame	OrigNumFrames
200	200	4	50	mm	200	751	2000
Frame#	Time	racr			lacr			c7			jug			rlel			rdr			llel			ldr			s2			lic			ric			lasi			rasi			rpsi			lpsi			rgt			lgt			rth1			rth2			rth3			rth4			rlfc			rmfc			rsh1			rsh2			rsh3			rsh4			rlmal			rmmal			rcal			rtoe			rmt5			lth1			lth2			lth4			lth3			llfc			lmfc			llmal			lmmal			lcal			lmt5			lsh1			lsh2			lsh3			lsh4			ltoe			SBIKE			LBIKE			RBIKE			
		X1	Y1	Z1	X2	Y2	Z2	X3	Y3	Z3	X4	Y4	Z4	X5	Y5	Z5	X6	Y6	Z6	X7	Y7	Z7	X8	Y8	Z8	X9	Y9	Z9	X10	Y10	Z10	X11	Y11	Z11	X12	Y12	Z12	X13	Y13	Z13	X14	Y14	Z14	X15	Y15	Z15	X16	Y16	Z16	X17	Y17	Z17	X18	Y18	Z18	X19	Y19	Z19	X20	Y20	Z20	X21	Y21	Z21	X22	Y22	Z22	X23	Y23	Z23	X24	Y24	Z24	X25	Y25	Z25	X26	Y26	Z26	X27	Y27	Z27	X28	Y28	Z28	X29	Y29	Z29	X30	Y30	Z30	X31	Y31	Z31	X32	Y32	Z32	X33	Y33	Z33	X34	Y34	Z34	X35	Y35	Z35	X36	Y36	Z36	X37	Y37	Z37	X38	Y38	Z38	X39	Y39	Z39	X40	Y40	Z40	X41	Y41	Z41	X42	Y42	Z42	X43	Y43	Z43	X44	Y44	Z44	X45	Y45	Z45	X46	Y46	Z46	X47	Y47	Z47	X48	Y48	Z48	X49	Y49	Z49	X50	Y50	Z50	
751	3.7550	565.522364	1357.435784	-25.536492	658.974149	1320.854704	-385.675945	582.811169	1425.665941	-215.144551	618.244952	1294.573672	-201.237818	525.712307	1100.198066	39.253115	666.355461	905.705649	-55.713586	595.625624	1087.642152	-531.107083	632.084606	858.811108	-431.908558	169.792071	1139.629588	-288.045708	333.347728	1116.576712	-401.794633	285.853174	1165.608262	-120.106242	363.137384	1063.668845	-364.776598	327.350425	1106.507654	-128.549544	186.331180	1181.325669	-227.719382	207.372506	1168.570630	-335.502882	268.815614	1036.106771	-60.686909	270.929089	976.785142	-428.524247	386.454916	963.495370	-57.422285	467.559452	931.116154	-66.709484	521.377521	860.963493	-66.435181	484.086708	952.582564	-89.758282	572.892245	773.751803	-92.387019	553.520543	757.420634	-192.053341	477.062919	734.841948	-65.854054	413.343206	673.145855	-80.442558	328.171460	651.918875	-79.750706	428.529152	652.555168	-110.172996	243.553997	596.904495	-82.710302	248.636057	609.266776	-158.874731	153.892430	615.449951	-118.036655	370.753722	464.067551	-129.855966	295.027840	493.951369	-62.678002	300.604562	847.634481	-423.501188	338.567781	772.047382	-412.107790	374.074540	779.291131	-398.783849	332.830263	682.560489	-401.349423	338.103043	588.558865	-382.240951	337.608772	573.778637	-286.895699	212.916260	242.175874	-401.236158	230.681091	246.754775	-329.935183	142.109318	209.042128	-366.490277	304.263705	150.128049	-430.714769	297.154172	496.189596	-409.120239	293.176284	409.877256	-402.463835	245.436462	334.944665	-404.514306	316.455084	404.122705	-370.404239	397.826302	158.021512	-362.966863	-65.132193	853.623113	-239.182072	20.777256	84.741590	-441.907978	21.067124	84.083497	-43.863208	
752	3.7600	565.767880	1356.381407	-22.832425	660.386595	1319.822620	-382.138473	583.855348	1424.477830	-211.815524	618.514673	1292.991301	-198.020784	526.221210	1099.316021	42.323793	665.178969	905.701078	-56.892413	597.227601	1087.753246	-529.414951	632.285401	858.067503	-431.386316	169.752379	1141.227098	-288.947952	334.441730	1117.302703	-401.221088	284.650651	1167.136741	-120.191122	363.590785	1064.278577	-363.901141	326.038653	1107.818525	-127.955492	185.836727	1182.990903	-228.630849	207.895225	1169.974612	-336.334396	267.334250	1037.841524	-61.004659	271.456711	977.787792	-428.259806	385.368786	965.755655	-57.771474	466.815225	933.726234	-67.129928	520.863674	864.066277	-66.853097	483.294964	955.516065	-89.946548	573.307593	777.246684	-92.624471	554.932193	760.684150	-191.610797	477.828728	737.473425	-66.122702	414.836213	675.058658	-80.544246	329.872680	652.893770	-79.764646	430.281108	654.303442	-110.007289	245.990299	596.727345	-82.801577	250.659269	609.144632	-158.887513	155.626474	613.776609	-118.075228	375.683924	466.914944	-129.807339	299.367230	495.056777	-62.508746	299.974898	848.522489	-423.279425	337.287918	772.561983	-411.690807	372.716698	779.591164	-398.088256	330.723525	683.181051	-401.151812	335.141401	589.152164	-381.985297	334.411631	574.019471	-286.532836	209.455097	243.139921	-400.908152	227.740607	247.168974	-330.355326	138.636163	211.162996	-366.440242	299.867877	149.625635	-430.640915	293.957202	496.945738	-408.943215	289.953404	410.685198	-402.339288	242.214650	335.761622	-404.474127	313.271226	404.842552	-370.315064	393.506676	155.894732	-362.874172	-65.121963	853.644199	-239.147634	20.779585	84.742223	-441.914304	21.079527	84.077324	-43.843701	
753	3.7650	566.072893	1355.203946	-20.181759	661.797327	1318.765540	-378.594175	584.914335	1423.059514	-208.610819	618.727661	1291.370736	-194.897940	526.817173	1098.386112	45.597469	663.809736	905.907085	-58.106628	598.850263	1087.917096	-527.704522	632.245235	857.522071	-430.944276	169.701664	1143.084966	-289.834549	335.593161	1118.004633	-401.481176	283.340554	1168.692527	-120.303551	363.956776	1064.940283	-363.098598	324.782447	1109.240489	-127.235464	185.405230	1184.661188	-229.547278	208.102717	1171.604456	-336.697615	265.773929	1039.678106	-61.423351	271.885312	978.854164	-428.226370	384.358539	968.015481	-58.133005	465.908478	936.592534	-67.365884	520.416135	866.956565	-67.211815	482.461688	958.452521	-90.085634	573.629818	780.657718	-92.862290	555.538988	763.886554	-191.802720	478.571461	740.025517	-66.360694	416.318947	676.869737	-80.607396	331.534754	653.821062	-79.929328	432.001949	656.282931	-110.083468	248.464173	596.419265	-82.843012	252.792864	608.829161	-158.874231	157.802372	611.588257	-117.061733	380.698115	469.505814	-129.795268	303.719258	496.050624	-62.387024	299.391404	849.494403	-423.115604	335.988695	773.228794	-411.341299	371.397847	780.034737	-397.449782	328.911346	683.943017	-401.245753	332.302703	589.742163	-381.800710	331.132856	574.662422	-286.340079	206.147514	244.249871	-400.689114	224.952874	247.840186	-330.895232	135.230430	213.527004	-366.395044	295.375932	149.246209	-430.502424	290.866572	497.845662	-408.849449	286.826555	411.567181	-402.305603	239.115517	336.644257	-404.385406	310.157397	405.666369	-370.216050	389.104756	153.887817	-362.760394	-65.143994	853.640694	-239.102466	20.782796	84.762366	-441.915646	21.083359	84.062283	-43.833760	
754	3.7700	566.366720	1353.892131	-17.812180	663.154455	1317.662103	-375.103664	586.068949	1421.716536	-205.188619	618.916082	1289.644167	-191.820446	527.468053	1097.410116	49.027668	662.330595	905.976411	-59.220159	600.442545	1088.032787	-526.068091	632.282093	857.013536	-430.506150	169.539880	1144.705148	-290.681544	336.529946	1118.840427	-400.931961	282.103857	1170.116033	-120.630227	364.265139	1065.754076	-362.126935	323.391728	1110.723192	-126.410325	184.625778	1186.123624	-230.600204	209.142332	1172.677906	-337.535508	264.099425	1041.652504	-61.811555	272.375109	979.912597	-428.123607	383.424237	970.302005	-59.183799	465.105860	939.233922	-67.869737	519.812093	870.093306	-67.426313	481.498723	961.346508	-90.257829	573.820528	784.150625	-92.992310	555.708654	767.806997	-192.073162	479.268520	742.449541	-66.617162	417.687849	678.473846	-80.709721	333.272101	654.412115	-80.022652	433.638222	657.973664	-110.115466	250.883692	595.934864	-82.887863	254.900990	608.338492	-158.877657	159.414046	609.411586	-117.084302	385.542607	472.066044	-129.737903	308.054781	496.883079	-62.259892	298.849773	850.538977	-422.918693	334.875707	774.010059	-410.960282	370.078742	780.648283	-396.959924	327.115642	684.870760	-401.131878	329.525753	590.467285	-381.685557	328.035757	575.346876	-286.121783	202.940738	245.552565	-400.516984	222.256361	248.710221	-331.483722	131.955517	216.025083	-366.333341	290.974132	149.062766	-430.469138	287.874056	498.851196	-408.687842	283.845838	412.605420	-402.296827	236.051453	337.700807	-404.383851	307.160656	406.643834	-370.172130	384.731454	152.076683	-362.664741	-65.125425	853.643564	-239.056127	20.766397	84.781975	-441.889289	21.081367	84.070143	-43.832422	
